# xmcd
#
# Track frame offsets:
#	150
#	15611
#	31456
#	45485
#	62611
#	79528
#	92832
#	113675
#	127046
#	142308
#	161404
#	176761
#	192066
#	206339
#	223121
#	241920
#	255316
#	270897
#	287328
#	305518
#
# Disc length: 4306 seconds
#
# Revision: 1
# Processed by: cddbd v1.5.1PL0 Copyright (c) Steve Scherf et al.
# Submitted via: audiograbber 1.83.01
#
DISCID=0d10d014
DTITLE=Various Artist - RC36
DYEAR=1996
DGENRE=Country
TTITLE0=Brooks and Dunn - My Maria
TTITLE1=Vince Gill - High Lonesome Sound
TTITLE2=Shania Twain - No One Needs To Know
TTITLE3=Bryan White - I'm Not Supposed To Love You Anymore
TTITLE4=Sawyer Brown - Treat Her Right
TTITLE5=George Strait - Blue Clear Sky
TTITLE6=Wynonna - Heaven Help My Heart
TTITLE7=Tracy lawrence - Time Marches On
TTITLE8=Alan Jackson - Home
TTITLE9=Reba McEntire - Starting Over Again
TTITLE10=Collin Raye - I Think About You
TTITLE11=David Lee Murphy - Every Time I Get Around You
TTITLE12=Blackhawk - Almost A Memory Now
TTITLE13=Faith Hill - Someone Else's Dream
TTITLE14=Garth Brooks - The Change
TTITLE15=Jeff Carson - Holdin' On To Something
TTITLE16=Mindy McCready - Ten Thousand Angels
TTITLE17=Sammy Kershaw - Meant To Be
TTITLE18=Terri Clark - If I Were You
TTITLE19=Toby Keith - Does That Blue Moon Ever Shine On You
EXTD=
EXTT0=
EXTT1=
EXTT2=
EXTT3=
EXTT4=
EXTT5=
EXTT6=
EXTT7=
EXTT8=
EXTT9=
EXTT10=
EXTT11=
EXTT12=
EXTT13=
EXTT14=
EXTT15=
EXTT16=
EXTT17=
EXTT18=
EXTT19=
PLAYORDER=
